<?xml version="1.0" encoding="UTF-8" standalone="no"?>
<svg
   width="1024"
   height="1024"
   version="1.1"
   id="svg33"
   sodipodi:docname="a-unique-green-leaf-in-movement-without-background.svg"
   inkscape:version="1.3.2 (091e20e, 2023-11-25, custom)"
   xmlns:inkscape="http://www.inkscape.org/namespaces/inkscape"
   xmlns:sodipodi="http://sodipodi.sourceforge.net/DTD/sodipodi-0.dtd"
   xmlns="http://www.w3.org/2000/svg"
   xmlns:svg="http://www.w3.org/2000/svg">
  <sodipodi:namedview
     id="namedview33"
     pagecolor="#ffffff"
     bordercolor="#000000"
     borderopacity="0.25"
     inkscape:showpageshadow="2"
     inkscape:pageopacity="0.0"
     inkscape:pagecheckerboard="0"
     inkscape:deskcolor="#d1d1d1"
     inkscape:zoom="0.80175781"
     inkscape:cx="511.37637"
     inkscape:cy="526.96711"
     inkscape:window-width="1920"
     inkscape:window-height="1017"
     inkscape:window-x="-8"
     inkscape:window-y="760"
     inkscape:window-maximized="1"
     inkscape:current-layer="svg33" />
  <path
     fill="#70d193"
     d="m 683.21233,763.468 -3.916,0.631 -3.375,7.401 0.287,0.368 c 0.934,1.224 1.397,2.148 1.844,3.618 l 8.532,9.264 c 2.211,2.604 4.152,5.362 6.534,7.833 15.642,16.231 33.13,30.956 51.147,44.455 5.58,4.182 11.296,8.866 17.494,12.098 0.553,0.018 1.033,0.128 1.536,-0.127 -2.893,-4.113 -7.76,-7.97 -11.321,-11.597 l -23.501,-24.485 -29.266,-31.799 c -5.19,-5.81 -9.908,-12.806 -15.995,-17.66 z"
     id="path1" />
  <defs
     id="defs2">
    <linearGradient
       id="gradient_0"
       gradientUnits="userSpaceOnUse"
       x1="369.83069"
       y1="497.58472"
       x2="279.26566"
       y2="490.50104"
       gradientTransform="matrix(-1,0,0,1,979.76533,0)">
      <stop
         offset="0"
         stop-color="#FBDDA6"
         id="stop1" />
      <stop
         offset="1"
         stop-color="#F1F9F4"
         id="stop2" />
    </linearGradient>
  </defs>
  <path
     fill="url(#gradient_0)"
     d="m 605.02033,325.469 -0.549,0.863 c -1.823,2.755 -5.188,5.959 -7.956,7.76 -0.63,2.686 0.198,8.571 1.022,11.329 1.925,1.958 3.325,3.734 4.791,6.079 l 27.56,41.246 8.93,15.887 7.936,14.171 13.972,31.024 c 4.18,9.295 8.454,18.498 11.704,28.172 1.699,5.056 3.682,10.831 2.829,16.25 -0.103,0.651 -0.309,1.086 -0.585,1.677 -1.336,2.367 -0.672,5.03 -1.093,7.635 -0.489,3.022 0.1,5.943 -0.576,8.989 l -5.852,57.833 c 0.095,3.971 -1.41,8.513 -2.138,12.428 l -5.248,27.938 c -0.869,3.723 -1.701,8.086 -3.521,11.455 l 0.023,0.211 c 1.807,1.67 3.846,4.078 6,5.211 l 0.038,0.286 c 8.84,8.659 20.108,14.663 29.905,22.107 2.441,1.483 12.798,8.864 14.939,8.486 l 1.905,-25.006 c 1.563,-26.781 0.224,-53.905 -3.167,-80.5 -10.75,-84.307 -44.118,-167.577 -100.869,-231.531 z"
     id="path2"
     style="fill:url(#gradient_0)" />
  <path
     fill="#5ab86f"
     d="m 674.67433,499.927 c -1.336,2.367 -0.672,5.03 -1.093,7.635 -0.489,3.022 0.1,5.943 -0.576,8.989 l -5.852,57.833 c 0.095,3.971 -1.41,8.513 -2.138,12.428 l -5.248,27.938 c -0.869,3.723 -1.701,8.086 -3.521,11.455 l 0.023,0.211 c 1.807,1.67 3.846,4.078 6,5.211 l 7.926,-54.774 z"
     id="path3" />
  <path
     fill="#70d193"
     d="m 670.19533,576.853 -7.926,54.774 0.038,0.286 c 8.84,8.659 20.108,14.663 29.905,22.107 0.524,-5.638 1.355,-11.89 0.717,-17.528 l -0.118,-0.992 c -0.638,-6.024 -4.437,-12.512 -6.82,-18.058 l -11.221,-25.942 c -1.301,-2.867 -3.354,-5.979 -4.271,-8.952 -0.53,-1.72 -0.355,-3.908 -0.304,-5.695 z"
     id="path4" />
  <defs
     id="defs5">
    <linearGradient
       id="gradient_1"
       gradientUnits="userSpaceOnUse"
       x1="534.07849"
       y1="345.17361"
       x2="376.84781"
       y2="322.57959"
       gradientTransform="matrix(-1,0,0,1,979.76533,0)">
      <stop
         offset="0"
         stop-color="#FDA249"
         id="stop4" />
      <stop
         offset="1"
         stop-color="#FBCD99"
         id="stop5" />
    </linearGradient>
  </defs>
  <path
     fill="url(#gradient_1)"
     d="m 426.31033,212.081 -15.966,-5.864 c 1.568,4.69 5.255,8.766 8.356,12.56 l 6.245,7.857 c 0.829,1.041 1.828,2.729 2.95,3.425 l 86.908,113.081 0.07,-0.688 c 0.824,-8.557 -0.901,-17.503 0.142,-25.95 1.971,1.918 0.301,24.956 1.578,29.894 7.228,8.944 13.626,18.668 20.255,28.068 l 36.99,53.94 13.748,20.768 c 2.074,3.179 4.196,7.545 6.82,10.19 0.578,0.583 0.87,0.691 1.65,0.776 1.121,-7.457 1.234,-14.646 1.662,-22.138 1.026,-17.961 1.865,-36.521 1.124,-54.5 l -0.934,-20 c -0.118,-2.783 -0.482,-5.218 -0.263,-8.038 l 0.332,-1.712 c -1.03,-1.612 0.06,-3.452 -0.719,-5.057 l -0.243,-0.438 c -0.304,-0.963 0.178,-1.96 0.522,-2.834 -0.824,-2.758 -1.652,-8.643 -1.022,-11.329 2.768,-1.801 6.133,-5.005 7.956,-7.76 l 0.549,-0.863 c -28.73,-32.303 -63.158,-57.578 -100.755,-78.532 -12.092,-6.739 -24.314,-13.271 -36.971,-18.902 z"
     id="path5"
     style="fill:url(#gradient_1)" />
  <path
     fill="#fda146"
     d="m 426.31033,212.081 -15.966,-5.864 c 1.568,4.69 5.255,8.766 8.356,12.56 l 6.245,7.857 c 0.829,1.041 1.828,2.729 2.95,3.425 l 1.294,0.682 c 0.985,0.701 1.297,1.223 2.524,1.561 0.637,-1.746 0.042,-2.8 -0.652,-4.449 -0.519,-1.234 -1.197,-2.587 -1.437,-3.911 -0.268,-1.471 0.288,-3.273 -0.415,-4.571 -0.531,-0.978 -0.286,-0.099 -0.558,-1.52 l -0.131,-0.824 c -1.242,-1.257 -1.961,-3.189 -2.21,-4.946 z"
     id="path6" />
  <defs
     id="defs7">
    <linearGradient
       id="gradient_2"
       gradientUnits="userSpaceOnUse"
       x1="397.99054"
       y1="451.99234"
       x2="296.30365"
       y2="468.04013"
       gradientTransform="matrix(-1,0,0,1,979.76533,0)">
      <stop
         offset="0"
         stop-color="#FFCF8B"
         id="stop6" />
      <stop
         offset="1"
         stop-color="#F2EDCA"
         id="stop7" />
    </linearGradient>
  </defs>
  <path
     fill="url(#gradient_2)"
     d="m 674.67433,499.927 c 0.276,-0.591 0.482,-1.026 0.585,-1.677 0.853,-5.419 -1.13,-11.194 -2.829,-16.25 -3.25,-9.674 -7.524,-18.877 -11.704,-28.172 l -13.972,-31.024 -7.936,-14.171 -8.93,-15.887 -27.56,-41.246 c -1.466,-2.345 -2.866,-4.121 -4.791,-6.079 -0.344,0.874 -0.826,1.871 -0.522,2.834 l 0.243,0.438 c 0.779,1.605 -0.311,3.445 0.719,5.057 l -0.332,1.712 c -0.219,2.82 0.145,5.255 0.263,8.038 l 0.934,20 c 0.741,17.979 -0.098,36.539 -1.124,54.5 -0.428,7.492 -0.541,14.681 -1.662,22.138 l -13.456,80 -11.17,44.873 c -2.151,8.66 -3.588,18.702 -7.089,26.856 l 7.861,10.609 17.86,-72.661 20.629,27.562 c 13.282,17.489 28.527,34.914 45.555,48.828 1.82,-3.369 2.652,-7.732 3.521,-11.455 l 5.248,-27.938 c 0.728,-3.915 2.233,-8.457 2.138,-12.428 l 5.852,-57.833 c 0.676,-3.046 0.087,-5.967 0.576,-8.989 0.421,-2.605 -0.243,-5.268 1.093,-7.635 z"
     id="path7"
     style="fill:url(#gradient_2)" />
  <path
     fill="#1f9263"
     d="m 597.64533,355.462 c -0.219,2.82 0.145,5.255 0.263,8.038 l 0.934,20 c 0.741,17.979 -0.098,36.539 -1.124,54.5 -0.428,7.492 -0.541,14.681 -1.662,22.138 l -13.456,80 -11.17,44.873 c -2.151,8.66 -3.588,18.702 -7.089,26.856 l 7.861,10.609 17.86,-72.661 c -0.271,-0.531 1.741,-7.765 1.953,-8.901 1.283,-6.879 1.953,-13.957 2.704,-20.914 l 5.35,-53.861 0.502,-16.291 0.727,-20.643 -2.059,-45.955 c -0.629,-9.147 -0.129,-18.745 -1.594,-27.788 z"
     id="path8" />
  <path
     fill="#70d193"
     d="m 600.06933,466.139 -5.35,53.861 c -0.751,6.957 -1.421,14.035 -2.704,20.914 -0.212,1.136 -2.224,8.37 -1.953,8.901 l 20.629,27.562 c 13.282,17.489 28.527,34.914 45.555,48.828 1.82,-3.369 2.652,-7.732 3.521,-11.455 l 5.248,-27.938 c 0.728,-3.915 2.233,-8.457 2.138,-12.428 l -0.909,-0.344 c -2.923,-3.686 -4.79,-8.389 -6.982,-12.54 l -8.985,-16.177 -27.562,-45.281 -14.961,-22.834 -4.381,-6.236 c -1.188,-1.545 -2.684,-2.953 -3.304,-4.833 z"
     id="path9" />
  <path
     fill="#70d193"
     d="m 516.59333,346.396 c -1.277,-4.938 0.393,-27.976 -1.578,-29.894 -1.043,8.447 0.682,17.393 -0.142,25.95 l -0.07,0.688 -12.127,92.548 -14.879,69.676 7.586,12.238 c 3.43,6.278 7.593,11.275 11.889,16.944 l 13.328,18.115 43.741,59.206 c 3.501,-8.154 4.938,-18.196 7.089,-26.856 l 11.17,-44.873 13.456,-80 c -0.78,-0.085 -1.072,-0.193 -1.65,-0.776 -2.624,-2.645 -4.746,-7.011 -6.82,-10.19 l -13.748,-20.768 -36.99,-53.94 c -6.629,-9.4 -13.027,-19.124 -20.255,-28.068 z"
     id="path10" />
  <path
     fill="#12684b"
     d="m 516.59333,346.396 c -1.277,-4.938 0.393,-27.976 -1.578,-29.894 -1.043,8.447 0.682,17.393 -0.142,25.95 l -0.07,0.688 -12.127,92.548 -14.879,69.676 7.586,12.238 c 1.244,-3.131 1.635,-6.826 2.212,-10.125 l 2.534,-13.83 8.899,-49.011 z"
     id="path11" />
  <path
     fill="#5ab86f"
     d="m 509.02833,444.636 -8.899,49.011 -2.534,13.83 c -0.577,3.299 -0.968,6.994 -2.212,10.125 3.43,6.278 7.593,11.275 11.889,16.944 l 13.328,18.115 43.741,59.206 c 3.501,-8.154 4.938,-18.196 7.089,-26.856 l 11.17,-44.873 c -3.251,-2.832 -5.82,-7.228 -8.489,-10.646 l -23.564,-30.76 -30.315,-39.381 -7.556,-9.841 c -1.238,-1.601 -2.789,-3.029 -3.648,-4.874 z"
     id="path12" />
  <path
     fill="#3fa568"
     d="m 410.34433,206.217 c -5.736,-2.549 -11.822,-4.179 -17.717,-6.303 l -43.339,-16.301 -30.932,-14.17 -32.246,-15.168 -18.198,-10.129 c 0.101,3.729 7.176,9.445 9.697,12.224 2.157,2.378 4.126,4.975 6.419,7.224 l 0.972,0.889 c -0.507,-2.771 -0.988,-5.402 -0.946,-8.233 1.46,3.372 1.721,7.826 2.69,11.469 l 2.344,35.435 0.707,12.586 c 0.124,1.945 0.094,4.234 0.652,6.107 0.522,1.755 2,3.58 3.007,5.117 l 5.346,8.395 33.173,51.013 6.786,10.326 c 0.979,1.522 2.199,3.088 2.792,4.807 0.284,1.333 -0.054,0.584 0.656,1.385 0.588,0.663 0.823,1.125 1.212,1.883 1.142,2.23 2.731,4.137 4.093,6.227 0.841,1.29 1.331,2.751 2.611,3.679 1.758,0.775 20.019,28.833 22.638,32.821 0.933,1.422 2.27,4.503 3.706,5.272 2.779,1.12 6.392,7.324 8.324,9.815 l 25.499,33.228 8.239,11.664 39.426,55.191 18.419,26.967 c 3.613,5.299 7.026,11.05 11.423,15.727 l 14.879,-69.676 12.127,-92.548 -86.908,-113.081 c -1.122,-0.696 -2.121,-2.384 -2.95,-3.425 l -6.245,-7.857 c -3.101,-3.794 -6.788,-7.87 -8.356,-12.56 z"
     id="path13" />
  <path
     fill="#12684b"
     d="m 351.76633,245.505 -3.199,-55.255 -0.552,-0.394 0.246,50.76 -5.746,61.401 -0.964,-0.512 c 0.284,1.333 -0.054,0.584 0.656,1.385 0.588,0.663 0.823,1.125 1.212,1.883 1.142,2.23 2.731,4.137 4.093,6.227 0.841,1.29 1.331,2.751 2.611,3.679 l -0.992,-2.429 c 0.881,-2.73 0.718,-6.147 0.918,-9.018 l 0.71,-31.049 z"
     id="path14" />
  <path
     fill="#12684b"
     d="m 420.55533,239.407 c -0.368,7.673 1.094,15.805 1.301,23.577 0.591,22.182 0.701,45.128 -2.118,67.123 -0.256,4.618 -1.138,9.283 -1.73,13.875 l -3.748,27.768 -1.824,13.75 c -0.271,2.38 -0.32,4.939 -0.865,7.269 -0.253,1.083 -0.751,2.077 -1.281,3.046 l 8.239,11.664 7.159,-78.173 z"
     id="path15" />
  <path
     fill="#1f9263"
     d="m 348.26133,240.616 c -6.434,-6.022 -11.959,-13.871 -17.603,-20.69 l -43.914,-52.207 2.344,35.435 0.707,12.586 c 0.124,1.945 0.094,4.234 0.652,6.107 0.522,1.755 2,3.58 3.007,5.117 l 5.346,8.395 33.173,51.013 6.786,10.326 c 0.979,1.522 2.199,3.088 2.792,4.807 l 0.964,0.512 z"
     id="path16" />
  <path
     fill="#1f9263"
     d="m 419.73833,330.107 -67.972,-84.602 -1.007,26.678 -0.71,31.049 c -0.2,2.871 -0.037,6.288 -0.918,9.018 l 0.992,2.429 c 1.758,0.775 20.019,28.833 22.638,32.821 0.933,1.422 2.27,4.503 3.706,5.272 2.779,1.12 6.392,7.324 8.324,9.815 l 25.499,33.228 c 0.53,-0.969 1.028,-1.963 1.281,-3.046 0.545,-2.33 0.594,-4.889 0.865,-7.269 l 1.824,-13.75 3.748,-27.768 c 0.592,-4.592 1.474,-9.257 1.73,-13.875 z"
     id="path17" />
  <path
     fill="#5ab86f"
     d="m 418.70033,218.777 c -1.912,6.035 1.85,14.273 1.855,20.63 l 5.133,89.899 -7.159,78.173 39.426,55.191 18.419,26.967 c 3.613,5.299 7.026,11.05 11.423,15.727 l 14.879,-69.676 12.127,-92.548 -86.908,-113.081 c -1.122,-0.696 -2.121,-2.384 -2.95,-3.425 z"
     id="path18" />
  <path
     fill="#3fa568"
     d="m 425.68833,329.306 -7.159,78.173 39.426,55.191 18.419,26.967 c 3.613,5.299 7.026,11.05 11.423,15.727 l 14.879,-69.676 -0.402,-0.304 c -2.007,-1.725 -3.726,-4.459 -5.368,-6.549 l -10.782,-13.769 -41.437,-52.72 -14.729,-18.751 c -0.908,-1.138 -3.855,-4.001 -4.134,-5.146 -0.575,-2.357 0.006,-6.528 -0.136,-9.143 z"
     id="path19" />
  <defs
     id="defs20">
    <linearGradient
       id="gradient_3"
       gradientUnits="userSpaceOnUse"
       x1="398.06726"
       y1="376.21558"
       x2="590.66724"
       y2="647.05066"
       gradientTransform="matrix(-1,0,0,1,979.76533,0)">
      <stop
         offset="0"
         stop-color="#0F6241"
         id="stop19" />
      <stop
         offset="1"
         stop-color="#0C7B5A"
         id="stop20" />
    </linearGradient>
  </defs>
  <path
     fill="url(#gradient_3)"
     d="m 240.69733,126.097 -6.628,-4.673 c -0.088,1.052 -0.32,2.267 -0.264,3.309 l -0.744,26.859 -5.197,61.408 -6.592,80.498 c -2.675,31.792 -5.955,63.573 -4.936,95.538 1.013,31.753 5.522,62.864 12.679,93.779 3.152,13.615 7.23,26.744 11.853,39.917 2.732,7.784 5.44,15.851 9.068,23.266 l 1.069,-0.337 c 3.218,2.708 5.961,6.244 8.571,9.542 1.269,1.604 2.411,3.451 4.058,4.686 l -1.377,-2.889 0.508,-0.479 29.892,11.296 3.858,1.401 4.772,1.778 c 0.919,0.308 0.517,0.156 1.322,0.54 0.706,0.338 1.391,0.527 2.143,0.732 l 0.343,-0.687 c 14.181,4.078 28.278,9.902 42.129,15.031 l 31.041,11.378 16.848,5.021 12.692,4.092 c 1.591,0.509 3.911,1.594 5.535,1.718 l 147.845,48.111 c 2.627,2.055 7.263,8.728 8.02,11.899 9.922,10.845 17.31,22.837 25.897,34.663 l 9.656,13.526 c 1.919,2.695 4.361,5.514 5.688,8.542 l 8.354,11.453 c 3.459,2.027 7.259,8.535 9.827,11.789 l 27.081,34.87 c 1.149,1.127 2.295,2.428 3.625,3.327 1.927,1.337 3.371,3.521 4.845,5.335 l 7.764,9.402 38.916,44.71 c 6.597,7.369 13.261,16.638 21.501,22.191 4.177,2.815 9.314,4.317 14.318,3.428 0.975,-0.173 1.853,-0.427 2.78,-0.764 l 0.493,-0.299 0.815,-0.507 c 4.683,-2.853 7.985,-6.242 10.35,-11.251 1.345,-2.848 3.277,-7.233 2.18,-10.237 -0.503,0.255 -0.983,0.145 -1.536,0.127 -6.198,-3.232 -11.914,-7.916 -17.494,-12.098 -18.017,-13.499 -35.505,-28.224 -51.147,-44.455 -2.382,-2.471 -4.323,-5.229 -6.534,-7.833 l -8.532,-9.264 c -0.447,-1.47 -0.91,-2.394 -1.844,-3.618 l -0.287,-0.368 3.375,-7.401 3.916,-0.631 c -0.325,-0.816 -0.188,-1.198 -0.066,-2.047 2.78,-4.522 4.756,-10.516 6.547,-15.527 9.564,-26.768 14.329,-55.211 17.458,-83.388 -2.141,0.378 -12.498,-7.003 -14.939,-8.486 -9.797,-7.444 -21.065,-13.448 -29.905,-22.107 l -0.038,-0.286 c -2.154,-1.133 -4.193,-3.541 -6,-5.211 l -0.023,-0.211 c -17.028,-13.914 -32.273,-31.339 -45.555,-48.828 l -20.629,-27.562 -17.86,72.661 -7.861,-10.609 -43.741,-59.206 -13.328,-18.115 c -4.296,-5.669 -8.459,-10.666 -11.889,-16.944 l -7.586,-12.238 c -4.397,-4.677 -7.81,-10.428 -11.423,-15.727 l -18.419,-26.967 -39.426,-55.191 -8.239,-11.664 -25.499,-33.228 c -1.932,-2.491 -5.545,-8.695 -8.324,-9.815 -1.436,-0.769 -2.773,-3.85 -3.706,-5.272 -2.619,-3.988 -20.88,-32.046 -22.638,-32.821 -1.28,-0.928 -1.77,-2.389 -2.611,-3.679 -1.362,-2.09 -2.951,-3.997 -4.093,-6.227 -0.389,-0.758 -0.624,-1.22 -1.212,-1.883 -0.71,-0.801 -0.372,-0.052 -0.656,-1.385 -0.593,-1.719 -1.813,-3.285 -2.792,-4.807 l -6.786,-10.326 -33.173,-51.013 -5.346,-8.395 c -1.007,-1.537 -2.485,-3.362 -3.007,-5.117 -0.558,-1.873 -0.528,-4.162 -0.652,-6.107 l -0.707,-12.586 -2.344,-35.435 c -0.969,-3.643 -1.23,-8.097 -2.69,-11.469 -0.042,2.831 0.439,5.462 0.946,8.233 l -0.972,-0.889 c -2.293,-2.249 -4.262,-4.846 -6.419,-7.224 -2.521,-2.779 -9.596,-8.495 -9.697,-12.224 z"
     id="path20"
     style="fill:url(#gradient_3)" />
  <path
     fill="#3fa568"
     d="m 240.69733,126.097 -6.628,-4.673 c -0.088,1.052 -0.32,2.267 -0.264,3.309 2.417,7.037 6.902,13.29 10.248,19.929 0.881,-3.726 -2.032,-9.086 -2.95,-12.833 -0.453,-1.851 -0.408,-3.837 -0.406,-5.732 z"
     id="path21" />
  <defs
     id="defs22">
    <linearGradient
       id="gradient_4"
       gradientUnits="userSpaceOnUse"
       x1="642.66528"
       y1="566.65692"
       x2="506.15283"
       y2="507.76462"
       gradientTransform="matrix(-1,0,0,1,979.76533,0)">
      <stop
         offset="0"
         stop-color="#004547"
         id="stop21" />
      <stop
         offset="1"
         stop-color="#065F5C"
         id="stop22" />
    </linearGradient>
  </defs>
  <path
     fill="url(#gradient_4)"
     d="m 505.56933,579.159 c -1.175,-2.823 -3.625,-5.71 -5.471,-8.153 -0.443,-0.587 -1.315,-2.035 -1.857,-2.428 -2.186,-1.585 -7.022,-2.57 -9.756,-3.547 l -27.957,-10.08 -101.918,-37.049 -31.818,-13.152 -49.027,-20.373 -0.745,0.373 56.288,26.109 19.957,9.087 c 3.01,1.358 6.565,2.509 9.317,4.308 l 0.616,0.417 69.099,27.466 c 19.06,7.69 38.11,16.097 57.606,22.594 z"
     id="path22"
     style="fill:url(#gradient_4)" />
  <path
     fill="#1f9263"
     d="m 267.91233,144.146 -27.215,-18.049 c -0.002,1.895 -0.047,3.881 0.406,5.732 0.918,3.747 3.831,9.107 2.95,12.833 l 23.403,40.134 c 5.387,9.293 10.474,19.615 16.782,28.271 2.242,-10.375 1.648,-21.468 1.588,-32.046 -0.03,-5.205 0.327,-11.505 -0.826,-16.538 l -0.972,-0.889 c -2.293,-2.249 -4.262,-4.846 -6.419,-7.224 -2.521,-2.779 -9.596,-8.495 -9.697,-12.224 z"
     id="path23" />
  <path
     fill="#1f9263"
     d="m 363.19833,524.671 c -0.014,2.734 2.217,5.407 3.493,7.767 6.399,11.827 13.652,23.42 21.14,34.583 4.325,6.448 10.29,13.422 13.228,20.531 2.82,6.823 8.976,13.832 13.506,19.698 -0.326,0.44 -0.713,0.832 -1.06,1.257 l -0.165,0.314 147.845,48.111 -55.616,-77.773 -15.666,-4.428 c -19.496,-6.497 -38.546,-14.904 -57.606,-22.594 z"
     id="path24" />
  <path
     fill="#13df74"
     d="m 410.29033,395.815 -25.499,-33.228 c -1.932,-2.491 -5.545,-8.695 -8.324,-9.815 l 48.594,72.928 45.573,68.45 7.539,10.35 39.295,58.797 62.171,84.584 64.65,86.342 17.919,22.752 c 4.669,6.035 9.523,14.114 15.844,18.511 -0.447,-1.47 -0.91,-2.394 -1.844,-3.618 l -0.287,-0.368 3.375,-7.401 3.916,-0.631 c -0.325,-0.816 -0.188,-1.198 -0.066,-2.047 2.78,-4.522 4.756,-10.516 6.547,-15.527 9.564,-26.768 14.329,-55.211 17.458,-83.388 -2.141,0.378 -12.498,-7.003 -14.939,-8.486 -9.797,-7.444 -21.065,-13.448 -29.905,-22.107 l -0.038,-0.286 c -2.154,-1.133 -4.193,-3.541 -6,-5.211 l -0.023,-0.211 c -17.028,-13.914 -32.273,-31.339 -45.555,-48.828 l -20.629,-27.562 -17.86,72.661 -7.861,-10.609 -43.741,-59.206 -13.328,-18.115 c -4.296,-5.669 -8.459,-10.666 -11.889,-16.944 l -7.586,-12.238 c -4.397,-4.677 -7.81,-10.428 -11.423,-15.727 l -18.419,-26.967 -39.426,-55.191 z"
     id="path25" />
  <path
     fill="#3fa568"
     d="m 656.26933,626.416 -23.352,76.159 7.551,9.065 c 3.318,-7.884 5.634,-16.33 8.032,-24.543 l 9.219,-34.469 c 1.572,-6.857 2.725,-13.945 4.588,-20.715 l -0.038,-0.286 c -2.154,-1.133 -4.193,-3.541 -6,-5.211 z"
     id="path26" />
  <path
     fill="#70d193"
     d="m 692.21233,654.02 c -0.891,3.254 -0.715,6.864 -1.04,10.219 l -2.449,19.261 c -3.586,23.151 -8.467,45.823 -15.302,68.239 2.094,3.089 6.012,8.775 9.725,9.682 2.78,-4.522 4.756,-10.516 6.547,-15.527 9.564,-26.768 14.329,-55.211 17.458,-83.388 -2.141,0.378 -12.498,-7.003 -14.939,-8.486 z"
     id="path27" />
  <path
     fill="#70d193"
     d="m 557.90733,766.13 -0.626,0.016 c -2.359,0.046 -5.82,-0.115 -8.04,-0.814 l -1.319,-0.265 -0.832,-0.183 -2.19,0.667 c -1.893,0.545 -3.748,0.274 -5.682,0.994 -1.153,0.429 -1.952,0.212 -3.134,0.739 l -0.825,0.317 -2.36,1.025 c -1.435,0.622 -2.916,1.207 -4.442,1.554 -1.981,0.45 -5.079,1.818 -6.935,2.71 -1.419,0.681 -2.874,0.704 -4.202,1.582 -0.968,0.64 -1.993,0.802 -3.129,0.841 -0.941,0.033 -0.961,0.229 -1.753,0.551 -2.407,0.977 -5.237,1.519 -7.501,2.5 -0.981,0.425 -1.979,0.387 -3.016,0.494 -0.941,0.098 -0.344,0.051 -1.484,0.506 -1.055,0.42 -1.539,-0.1 -2.298,0.071 -1.549,0.348 0.01,0.942 -2.128,0.399 -0.592,-0.151 -1.263,0.153 -1.802,0.325 -1.846,0.588 -4.69,-0.416 -6.206,0.423 -0.612,0.339 -0.36,0.222 -1.033,0.439 l -0.577,1.306 -0.79,0.299 c 0.506,1.32 -0.081,0.31 1.109,1.131 l 0.721,0.891 c 12.066,4.979 25.296,8.393 38.05,11.037 37.115,7.696 72.84,7.903 109.714,-1.242 7.651,-1.898 15.325,-3.743 22.662,-6.694 l 1.474,-0.748 c -1.33,-0.899 -2.476,-2.2 -3.625,-3.327 z"
     id="path28" />
  <defs
     id="defs29">
    <linearGradient
       id="gradient_5"
       gradientUnits="userSpaceOnUse"
       x1="621.19849"
       y1="514.15527"
       x2="533.84473"
       y2="798.20428"
       gradientTransform="matrix(-1,0,0,1,979.76533,0)">
      <stop
         offset="0"
         stop-color="#0E9366"
         id="stop28" />
      <stop
         offset="1"
         stop-color="#3DCBA6"
         id="stop29" />
    </linearGradient>
  </defs>
  <path
     fill="url(#gradient_5)"
     d="m 263.63433,559.889 c -1.647,-1.235 -2.789,-3.082 -4.058,-4.686 -2.61,-3.298 -5.353,-6.834 -8.571,-9.542 l -1.069,0.337 c 7.28,20.927 18.915,41.25 30.436,60.11 13.737,22.485 28.868,44.222 46.027,64.249 17.055,19.906 36.032,37.72 56.453,54.107 22.491,18.047 46.088,33.788 72.101,46.382 l 20.884,9.423 c 3.73,1.557 7.68,3.385 11.596,4.379 l -0.721,-0.891 c -1.19,-0.821 -0.603,0.189 -1.109,-1.131 l 0.79,-0.299 0.577,-1.306 c 0.673,-0.217 0.421,-0.1 1.033,-0.439 1.516,-0.839 4.36,0.165 6.206,-0.423 0.539,-0.172 1.21,-0.476 1.802,-0.325 2.138,0.543 0.579,-0.051 2.128,-0.399 0.759,-0.171 1.243,0.349 2.298,-0.071 1.14,-0.455 0.543,-0.408 1.484,-0.506 1.037,-0.107 2.035,-0.069 3.016,-0.494 2.264,-0.981 5.094,-1.523 7.501,-2.5 0.792,-0.322 0.812,-0.518 1.753,-0.551 1.136,-0.039 2.161,-0.201 3.129,-0.841 1.328,-0.878 2.783,-0.901 4.202,-1.582 1.856,-0.892 4.954,-2.26 6.935,-2.71 1.526,-0.347 3.007,-0.932 4.442,-1.554 l 2.36,-1.025 0.825,-0.317 c 1.182,-0.527 1.981,-0.31 3.134,-0.739 1.934,-0.72 3.789,-0.449 5.682,-0.994 l 2.19,-0.667 0.832,0.183 1.319,0.265 c 2.22,0.699 5.681,0.86 8.04,0.814 l 0.626,-0.016 c -3.462,-1.61 -7.909,-2.346 -11.615,-3.501 l -27.367,-8.963 c -30.051,-10.558 -58.863,-23.476 -87.033,-38.287 -12.03,-6.325 -24.98,-12.851 -35.649,-21.308 l -6.621,-2.349 c -5.072,-0.696 -10.283,-2.736 -15.354,-3.813 -1.327,-0.282 -2.05,-0.524 -3.248,-1.159 l 0.495,-0.495 9.635,2.395 2.201,0.6 1.825,0.355 5.06,1.186 c -5.996,-5.719 -13.375,-9.865 -19.761,-15.146 l -46.107,-41.728 c -6.565,-6.533 -12.157,-14.123 -18.041,-21.263 l -30.902,-37.544 z"
     id="path29"
     style="fill:url(#gradient_5)" />
  <path
     fill="#1f9263"
     d="m 304.75233,572.268 c -0.752,-0.205 -1.437,-0.394 -2.143,-0.732 -0.805,-0.384 -0.403,-0.232 -1.322,-0.54 l -4.772,-1.778 -3.858,-1.401 -29.892,-11.296 -0.508,0.479 1.377,2.889 11.791,15.221 30.902,37.544 c 5.884,7.14 11.476,14.73 18.041,21.263 l 46.107,41.728 c 6.386,5.281 13.765,9.427 19.761,15.146 l -5.06,-1.186 -1.825,-0.355 -2.201,-0.6 -9.635,-2.395 -0.495,0.495 c 1.198,0.635 1.921,0.877 3.248,1.159 5.071,1.077 10.282,3.117 15.354,3.813 l 6.621,2.349 c 10.669,8.457 23.619,14.983 35.649,21.308 28.17,14.811 56.982,27.729 87.033,38.287 l 27.367,8.963 c 3.706,1.155 8.153,1.891 11.615,3.501 l 97.801,17.544 -27.081,-34.87 c -2.568,-3.254 -6.368,-9.762 -9.827,-11.789 l -8.354,-11.453 c -1.327,-3.028 -3.769,-5.847 -5.688,-8.542 l -9.656,-13.526 c -8.587,-11.826 -15.975,-23.818 -25.897,-34.663 -0.757,-3.171 -5.393,-9.844 -8.02,-11.899 l -147.845,-48.111 c -1.624,-0.124 -3.944,-1.209 -5.535,-1.718 l -12.692,-4.092 -16.848,-5.021 -31.041,-11.378 c -13.851,-5.129 -27.948,-10.953 -42.129,-15.031 z"
     id="path30" />
  <path
     fill="#026060"
     d="m 413.34033,608.821 c -1.624,-0.124 -3.944,-1.209 -5.535,-1.718 l -12.692,-4.092 -16.848,-5.021 -31.041,-11.378 c -13.851,-5.129 -27.948,-10.953 -42.129,-15.031 l -0.343,0.687 c 11.397,5.582 23.308,10.081 35.013,14.943 l 8.995,4.165 51.005,20.175 29.051,11.417 100.949,32.972 39.44,12.891 c -0.757,-3.171 -5.393,-9.844 -8.02,-11.899 z"
     id="path31" />
  <path
     fill="#3fa568"
     d="m 610.44633,725.562 -47.719,-10.304 c -7.325,-1.451 -14.627,-3.111 -22.05,-3.999 l -75.903,-7.174 c -9.459,-0.999 -19.733,-1.634 -29.042,-3.487 l -17.142,-2.982 -7.216,-1.406 -15.172,-3.408 c -2.337,-0.5 -4.136,-1.314 -6.58,-1.08 l 6.621,2.349 c 10.669,8.457 23.619,14.983 35.649,21.308 28.17,14.811 56.982,27.729 87.033,38.287 l 27.367,8.963 c 3.706,1.155 8.153,1.891 11.615,3.501 l 97.801,17.544 -27.081,-34.87 c -2.568,-3.254 -6.368,-9.762 -9.827,-11.789 z"
     id="path32" />
  <path
     fill="#12684b"
     d="m 610.44633,725.562 -47.719,-10.304 c -7.325,-1.451 -14.627,-3.111 -22.05,-3.999 l -75.903,-7.174 c -9.459,-0.999 -19.733,-1.634 -29.042,-3.487 l -17.142,-2.982 -7.216,-1.406 -15.172,-3.408 c -2.337,-0.5 -4.136,-1.314 -6.58,-1.08 l 6.621,2.349 222.557,42.944 z"
     id="path33" />
</svg>
