<?xml version="1.0" encoding="UTF-8" standalone="no"?>
<svg
   width="1024"
   height="1024"
   version="1.1"
   id="svg23"
   sodipodi:docname="leaf-pattern-to-be-repeated-in-a-background-of-a-w(1).svg"
   inkscape:version="1.3.2 (091e20e, 2023-11-25, custom)"
   xmlns:inkscape="http://www.inkscape.org/namespaces/inkscape"
   xmlns:sodipodi="http://sodipodi.sourceforge.net/DTD/sodipodi-0.dtd"
   xmlns="http://www.w3.org/2000/svg"
   xmlns:svg="http://www.w3.org/2000/svg">
  <sodipodi:namedview
     id="namedview23"
     pagecolor="#ffffff"
     bordercolor="#000000"
     borderopacity="0.25"
     inkscape:showpageshadow="2"
     inkscape:pageopacity="0.0"
     inkscape:pagecheckerboard="0"
     inkscape:deskcolor="#d1d1d1"
     inkscape:zoom="0.80175781"
     inkscape:cx="511.37637"
     inkscape:cy="512"
     inkscape:window-width="1920"
     inkscape:window-height="1017"
     inkscape:window-x="1352"
     inkscape:window-y="-8"
     inkscape:window-maximized="1"
     inkscape:current-layer="svg23" />
  <path
     d="M 0,7.75657 V 0 h 4.38928 99.42572 21.022 108.996 12.625 40.584 12.248 162.925 14.262 16.166 15.552 102.215 17.42 11.488 46.367 105.113 7.14 120.413 19.83 46.063 8.639 13.667 17.45 v 6.34527 13.49893 6.5925 123.2433 8.114 36.538 9.244 71.566 4.407 48.801 11.762 96.744 11.811 107.564 23.529 45.843 6.561 102.206 7.42 75.161 7.44 60.289 5.589 28.157 15.774 l -0.01,84.55 c -0.01,1.21 0.38,4.35 -0.47,5.02 L 1023,1024 H 991.194 946.579 923.962 798.456 792.588 685.303 641.201 629.341 613.51 508.274 493.154 475.409 460.676 299.609 287.654 247.638 233.676 122.923 102.656 0 v -87.362 -20.122 -27.753 -5.227 -59.375 -7.351 -74.8 -7.527 -101.814 -6.962 -50.666 -17.857 -110.17 -11.149 -95.846 -11.022 -50.615 -4.385 -71.307 -8.251 -35.267 -7.521 -124.9049 -7.9194 z m 0,0 v 11.07013 7.9194 124.9049 7.521 35.267 8.251 71.307 4.385 50.615 11.022 95.846 11.149 110.17 17.857 50.666 6.962 101.814 7.527 74.8 7.351 59.375 5.227 27.753 20.122 87.362 h 102.656 20.267 110.753 13.962 40.016 11.955 161.067 14.733 17.745 15.12 105.236 C 596.861,1013.42 582.358,999.278 568.472,985.375 543.588,960.459 520.784,934.038 500.871,904.946 490.266,889.453 480.15,873.074 473.588,855.39 l 68.093,-38.609 c -1.17,-3.805 -11.959,-40.036 -12.24,-40.323 -0.671,-0.685 -3.012,-1.521 -3.941,-1.999 L 514.993,768.75 472.837,743.734 C 437.553,721.5 404.556,695.467 375.168,665.883 349.017,639.557 325.621,609.139 308.25,576.294 277.502,518.155 264.238,453.69 264.49,388.249 264.927,274.594 316.759,166.491 387.66,79.8131 405.514,57.986 424.606,36.4872 444.488,16.4986 L 462.215,0 H 299.29 287.042 246.458 233.833 124.837 103.815 4.38928 0 Z M 508.195,0 c 17.171,16.5948 34.787,32.8677 50.806,50.6094 51.03,56.5196 94.649,121.9186 121.886,193.2776 4.333,11.353 8.896,23.164 11.894,34.941 l 3.614,12.672 c 1.607,6.078 3.844,12.598 4.74,18.781 l 1.035,4.735 5.803,32.234 c 6.425,45.73 5.633,91.533 -4.037,136.75 l -7.323,28.5 c -2.331,9.808 -6.09,19.791 -9.589,29.25 -17.553,47.454 -41.414,92.396 -70.49,133.819 l -59.38,77.6 c -2.061,2.605 -15.644,18.853 -15.876,20.469 -0.107,0.742 0.925,3.226 1.117,4.112 1.649,7.582 3.828,14.756 6.6,22 1.175,3.069 2.22,6.531 3.851,9.398 0.223,0.393 0.405,0.549 0.696,0.844 66.26,-37.788 148.638,-53.139 222.958,-32.908 57.87,15.754 107.526,51.283 143.053,99.416 6.945,9.409 13.069,19.514 18.844,29.671 13.778,24.229 23.138,50.11 30.175,77.018 2.421,9.259 3.212,18.851 6.303,27.961 l 30.435,7.13 c 4.97,1.21 13.85,2.2 17.69,5.72 l 0.52,-0.23 c 0.85,-0.67 0.46,-3.81 0.47,-5.02 L 1024,934.2 V 918.426 890.269 884.68 824.391 816.951 741.79 734.37 632.164 625.603 579.76 556.231 448.667 436.856 340.112 328.35 279.549 275.142 203.576 194.332 157.794 149.68 26.4367 19.8442 6.34527 0 h -17.45 -13.667 -8.639 -46.063 -19.83 -120.413 -7.14 H 685.685 639.318 627.83 610.41 Z M 476.477,0 C 446.549,25.8627 419.819,55.5999 395.524,86.7523 355.898,137.563 320.925,194.044 300.395,255.43 l 7.262,16.441 14.91,28.629 c 14.561,25.103 32.927,48.377 52.911,69.373 23.43,24.617 50.095,47.144 79.424,64.459 9.289,5.484 18.746,11.269 28.598,15.684 1.9,0.851 4.447,2.387 6.449,2.801 l 0.542,0.014 -1.186,-27.581 -2.18,-47.386 -0.598,-14.364 c -0.058,-1.48 0.171,-3.888 -0.202,-5.285 -0.122,-0.457 -1.277,-1.662 -1.595,-2.076 l -5.062,-6.798 -16.966,-25.27 L 439.023,285 c -25.304,-46.728 -42.339,-97.222 -44.313,-150.609 -0.427,-11.549 0.475,-22.804 1.804,-34.259 0.311,-2.6751 0.359,-7.281 1.84,-9.5536 -1.122,14.6556 -1.669,28.8376 -0.586,43.5446 4.213,57.239 27.159,113.202 55.524,162.497 l 30.837,49.45 0.276,-48.07 1.084,-107.191 0.848,-66.874 0.158,-17.448 c 0.017,-2.504 -0.262,-5.41 0.068,-7.8721 1.856,-3.257 1.228,-8.9848 1.682,-12.8649 0.046,0.564 1.004,1.4497 1.385,1.9148 l 0.152,0.779 c 0.632,3.4807 0.351,7.5305 0.427,11.0758 l 0.302,29.5664 1.002,53.914 1.46,66.496 1.072,53.458 c 1.946,-1.493 3.593,-3.849 5.201,-5.737 l 11.612,-14.171 c 22.039,-27.57 39.181,-57.134 52.387,-89.852 7.971,-19.746 14.559,-40.732 17.345,-61.9 l 1.054,-8.372 c 1.218,4.217 0.539,8.024 0.606,12.333 l -0.495,0.745 0.013,0.458 c 0.027,1.219 -0.201,1.691 -0.433,2.792 -0.306,1.451 0.296,2.431 -0.58,3.75 l 0.23,5.711 0.033,0.487 c 10e-4,1.725 -0.638,3.6 -0.973,5.302 l -3.405,15.198 c -12.643,51.566 -43.417,99.441 -78.572,138.573 -0.844,0.938 -3.22,2.988 -3.645,4.065 -0.219,0.554 -0.045,2.278 -0.053,2.917 -0.037,2.779 0.22,5.386 0.38,8.139 l 1.005,19.809 5.537,107.364 C 562.087,408.258 616.47,356.037 656.297,293.298 l 18.875,-33.183 c -6.849,-21.622 -16.371,-42.493 -26.785,-62.61 l -15.08,-28.313 c -10.944,-18.864 -23.353,-36.655 -36.077,-54.34 l -10.48,-14.425 c -1.045,-1.4187 -2.361,-3.8392 -3.684,-4.927 L 582.25,94.9654 C 578.981,87.7891 571.523,80.8271 566.342,74.8673 550.744,56.925 534.902,39.0424 517.75,22.5482 L 492.643,0 Z m 86.414,811.918 -79.972,48.283 0.444,0.712 c 3.763,6.135 6.734,12.758 10.608,18.882 16.448,25.998 35.688,50.756 56.439,73.423 4.992,5.453 10.252,12.425 16.333,16.631 5.626,3.892 15.154,6.949 21.804,8.63 8.87,2.242 18.128,3.867 27.297,3.992 26.657,0.363 50.967,-9.219 73.45,-22.777 l 72.924,-52.363 c -23.691,-8.912 -49.316,-13.56 -74.022,-18.975 -6.914,-1.515 -14.502,-4.148 -21.535,-4.269 -4.645,-0.08 -10.939,2.953 -15.411,4.393 l -75.158,23.125 c -8.34,2.248 -16.79,5.088 -25.394,5.956 L 655.28,881.265 515.64,866.75 c 1.866,-0.819 3.973,-0.709 5.983,-0.81 l 11.527,-0.401 c 42.593,-0.658 86.466,2.999 128.163,11.751 -3.191,-3.225 -7.697,-5.964 -11.313,-8.776 -14.261,-11.09 -29.075,-20.857 -44.254,-30.617 z M 297.612,264.352 c -10.93,32.584 -18.229,66.151 -20.756,100.446 -0.431,5.859 -1.603,13.144 0.175,18.702 l 0.243,0.774 c 2.421,7.498 6.59,15.111 10.35,22.055 3.958,7.31 8.244,14.935 13.215,21.608 17.674,23.728 42.319,42.728 68.65,55.954 l 111.891,48.816 11.808,4.339 c 0.852,0.322 2.523,1.262 3.305,1.026 l -5.049,-75.99 C 472.282,455.108 454.638,443.608 438.022,432.022 382.729,393.466 333.376,342.393 304.647,280.797 Z m 380.037,3.029 c -9.541,17.033 -19.314,34.386 -30.263,50.546 -20.63,30.446 -45.626,58.162 -72.683,83.015 -17.212,15.809 -35.147,30.138 -53.732,44.297 l -13.66,10.233 c -0.898,0.613 -4.95,2.89 -5.247,3.499 -0.215,0.441 0.07,0.978 0.105,1.468 l 3.8,52.061 0.95,13.75 c 0.117,1.721 -0.101,3.772 0.353,5.425 l 0.478,1.196 12.494,-6.388 c 43.472,-24.18 89.072,-46.476 128.383,-77.233 14.352,-11.229 27.671,-22.928 39.442,-36.907 4.156,-4.936 11.151,-12.335 12.675,-18.569 1.521,-6.223 -0.198,-15.189 -0.785,-21.524 -3.36,-36.254 -11.377,-70.2 -22.31,-104.869 z m -173.996,385.535 1.24,-0.834 c -27.895,-27.719 -63.874,-45.749 -98.19,-64.087 -11.476,-6.133 -23.059,-11.961 -34.085,-18.9 -0.262,-0.48 -17.375,-12.122 -19.068,-13.362 -14.802,-11.425 -28.309,-25.093 -39.418,-40.132 -0.271,1.819 -0.211,2.449 -1.414,3.891 -6.969,-8.975 -13.445,-18.23 -19.211,-28.025 -3.188,-5.416 -5.801,-11.223 -9.25,-16.47 l 3.74,15.503 2.386,9.5 1.939,6.749 c 2.035,8.982 6.222,18.296 9.443,26.963 27.119,72.972 82.138,132.011 144.122,177.335 l 36.831,25.282 44.566,25.468 -5.676,-31.339 -6.978,-39.765 -2.743,-19.443 c -0.433,-3.353 -0.553,-7.963 -1.8,-11.064 -0.984,-2.445 -4.529,-5.405 -6.434,-7.27 z M 314.132,515.601 c 11.109,15.039 24.616,28.707 39.418,40.132 1.693,1.24 18.806,12.882 19.068,13.362 11.026,6.939 22.609,12.767 34.085,18.9 34.316,18.338 70.295,36.368 98.19,64.087 l 4.13,3.859 c 0.269,-3.795 -0.699,-8.354 -1.105,-12.173 l -3.82,-33.268 -5.299,-49 -0.927,-8.451 c -0.047,-0.372 -0.184,-2.214 -0.309,-2.415 -0.269,-0.43 -0.977,-0.275 -1.466,-0.412 -17.959,-5.069 -35.579,-11.566 -52.933,-18.411 -27.162,-10.713 -55.136,-20.809 -80.273,-35.862 -13.998,-8.383 -27.721,-19.235 -39.253,-30.77 -12.547,-12.552 -25.035,-28.358 -33.518,-43.946 l -13.716,-27.221 c -0.118,9.753 0.689,19.409 1.346,29.134 0.63,9.32 1.434,18.19 2.998,27.4 l 0.809,3.704 1.629,5.672 c 1.48,6.128 4.664,12.369 7.491,17.996 6.679,13.293 14.216,25.972 23.455,37.683 z m 386.71,-116.188 c -23.86,35.555 -54.256,66.23 -89.85,90.142 -26.583,17.858 -55.762,33.163 -84.375,47.495 -1.856,0.929 -16.919,8.262 -17.227,8.872 -0.217,0.433 0.511,5.034 0.556,5.828 l 6.013,58.5 2.012,16.5 c 0.288,2.66 0.281,5.389 0.777,8.02 l 1.131,5.961 c 0.123,3.151 0.468,5.92 1.262,8.973 15.468,-22.891 35.507,-43.382 56.762,-60.953 l 32.05,-24.66 30.234,-21.293 c 15.595,-11.783 30.778,-25.729 42.665,-41.305 2.535,-3.322 5.63,-6.312 7.439,-10.129 2.438,-5.142 3.003,-11.804 3.944,-17.378 4.134,-24.476 7.23,-49.707 6.607,-74.573 z m -14.433,104.337 -10.657,12.067 c -7.949,8.36 -16.813,16.235 -25.801,23.468 -18.191,14.639 -38.07,26.858 -56.849,40.678 -21.267,15.652 -40.442,33.929 -57.45,54.103 -3.766,4.466 -7.479,8.932 -10.88,13.687 -1.239,1.733 -2.794,3.532 -3.612,5.499 l 14.781,91.147 2.749,13.921 63.275,-81.703 c 37.111,-51.67 69.662,-109.97 85.069,-172.101 z m 83.764,406.5 -34.552,24.109 c -21.203,15.705 -42.978,32.296 -67.41,42.628 -22.483,9.508 -48.199,12.864 -72.198,7.844 -7.677,-1.606 -15.402,-4.944 -22.756,-7.692 l 0.422,0.323 38.286,33.148 c 4.651,3.24 9.117,4.45 14.535,5.93 17.325,4.76 35.81,5.95 53.532,2.79 28.383,-5.05 52.686,-21.275 73.854,-40.11 19.385,-17.248 35.912,-36.354 51.148,-57.308 -8.27,-3.797 -16.971,-6.546 -25.591,-9.424 -2.571,-0.858 -6.675,-2.81 -9.27,-2.238 z M 681.412,777.711 c -16.544,1.486 -32.364,3.938 -48.412,8.316 -7.536,2.056 -15.01,4.315 -22.083,7.663 33.956,-2.926 67.175,5.7 93.644,27.813 17.09,14.278 30.688,33.846 39.448,54.247 2.202,5.126 4.394,10.287 6.188,15.574 0.359,1.056 1.19,5.455 1.774,6.043 0.713,0.717 5.388,1.71 6.642,1.996 l 52.309,17.145 c 0.381,-4.009 -0.95,-8.981 -1.524,-13.005 -4.168,-29.239 -16.285,-60.472 -35.132,-83.422 -19.21,-23.391 -46.416,-38.882 -76.772,-41.754 -5.11,-0.483 -10.993,-1.342 -16.082,-0.616 z m -69.635,17.996 c -16.728,1.918 -31.026,9.29 -46.439,15.453 21.948,11.514 44.555,22.76 65.16,36.59 l 20.641,15.047 13.375,11.159 c 1.627,1.366 3.737,3.639 5.68,4.443 3.284,1.36 8.355,1.521 11.929,2.235 l 30.264,6.421 35.185,8.891 c -4.542,-9.98 -8.565,-19.96 -13.863,-29.608 -15.666,-28.532 -39.694,-51.287 -70.364,-62.75 -14.491,-5.415 -30.611,-8.18 -46.096,-8.089 -1.504,0.009 -4.149,-0.29 -5.472,0.208 z m 103.474,-18.618 c 8.003,2.839 16.341,5.209 24.037,8.81 28.02,13.111 46.823,36.337 59.76,63.851 8.039,17.097 12.394,35.092 15.454,53.634 0.357,2.162 0.771,14.366 1.618,15.118 0.677,0.6 2.964,1.124 3.961,1.505 l 12.088,4.797 39.915,17.629 0.086,0.026 c 0.576,-10.294 1.097,-20.741 0.061,-31.022 -3.352,-33.264 -16.909,-62.058 -39.167,-86.973 -14.337,-16.05 -31.841,-28.815 -52.145,-36.149 -9.122,-3.296 -18.808,-5.337 -28.325,-7.09 -8.841,-1.629 -17.952,-3.208 -26.942,-3.684 z m 100.855,25.661 c 8.168,6.866 16.053,13.231 23.302,21.146 17.029,18.593 28.692,41.717 34.67,66.104 1.292,5.273 2.552,10.879 3.026,16.302 1.143,13.084 1.123,25.362 -0.108,38.447 l 85.169,53.182 c -2.839,-17.25 -8.074,-34.327 -14.495,-50.566 -19.46,-49.221 -50.52,-91.694 -93.712,-122.587 -5.725,-4.095 -32.66,-22.231 -37.852,-22.028 z M 685.303,1024 h 107.285 c 27.129,-22.2 50.671,-47.299 69.059,-77.256 l -2.779,-1.709 c -6.044,-3.331 -12.853,-5.989 -19.202,-8.726 l -27.05,-11.572 c -0.143,-0.057 -2.124,-0.893 -2.187,-0.872 -0.303,0.101 -3.103,4.572 -3.59,5.279 -4.337,6.307 -9.077,12.354 -14.012,18.205 -16.392,19.433 -34.424,37.769 -55.305,52.401 -16.181,11.34 -33.396,18.61 -52.219,24.25 z m 113.153,0 h 125.506 l 33.565,-17.75 c -5.232,-5.46 -11.905,-9.59 -18.072,-13.927 -23.961,-16.851 -48.84,-30.952 -74.856,-44.352 L 848.001,972.5 c -8.719,12.04 -18.661,22.917 -29.145,33.42 -6.138,6.15 -12.678,12.63 -19.782,17.65 z m 148.123,0 h 44.615 c -9.592,-3.4 -20.44,-3.1 -29.82,-6.84 l -0.543,-0.22 z m -317.238,0 h 11.86 l -21.779,-6.55 z"
     id="path1"
     style="opacity:0.543986;fill:#2f2f2f;fill-opacity:1" />
  <defs
     id="defs2" />
  <path
     fill="url(#gradient_0)"
     d="m 353.55,555.733 c 1.693,1.24 18.806,12.882 19.068,13.362 -0.936,0.657 -0.937,0.906 -1.429,1.852 l -0.315,0.453 c -7.25,-3.836 -14.108,-9.352 -20.544,-14.424 l 0.295,-1.101 c 0.983,-0.228 1.921,-0.157 2.925,-0.142 z"
     id="path2"
     style="opacity:0.543986;fill:#2f2f2f;fill-opacity:1" />
  <path
     d="m 314.132,515.601 c 11.109,15.039 24.616,28.707 39.418,40.132 -1.004,-0.015 -1.942,-0.086 -2.925,0.142 l -0.295,1.101 c -13.703,-11.328 -26.77,-23.311 -37.612,-37.484 1.203,-1.442 1.143,-2.072 1.414,-3.891 z"
     id="path3"
     style="opacity:0.543986;fill:#2f2f2f;fill-opacity:1" />
  <path
     d="m 370.874,571.4 0.315,-0.453 c 0.492,-0.946 0.493,-1.195 1.429,-1.852 11.026,6.939 22.609,12.767 34.085,18.9 34.316,18.338 70.295,36.368 98.19,64.087 l -1.24,0.834 c -26.705,-25.233 -60.132,-42.688 -92.57,-59.392 -13.507,-6.956 -27.652,-13.541 -40.209,-22.124 z"
     id="path4"
     style="opacity:0.543986;fill:#2f2f2f;fill-opacity:1" />
  <path
     d="m 581.644,122.922 0.788,-15.445 c 0.013,-2.2 -1.102,-10.4497 -0.136,-11.8128 2.214,12.7848 1.999,25.2298 0.796,38.0858 -0.472,5.04 -0.781,10.04 -2.107,14.961 L 580.755,143 c 0.876,-1.319 0.274,-2.299 0.58,-3.75 0.232,-1.101 0.46,-1.573 0.433,-2.792 l -0.013,-0.458 0.495,-0.745 c -0.067,-4.309 0.612,-8.116 -0.606,-12.333 z"
     id="path5"
     style="opacity:0.543986;fill:#2f2f2f;fill-opacity:1" />
  <path
     d="m 486.563,98.6149 c -0.413,-10.5359 0.251,-21.354 0.379,-31.917 0.049,-4.0479 -0.812,-11.4448 0.558,-15.1802 l 0.368,0.2323 1.762,35.9148 c -0.381,-0.4651 -1.339,-1.3508 -1.385,-1.9148 -0.454,3.8801 0.174,9.6079 -1.682,12.8649 z"
     id="path6"
     style="opacity:0.543986;fill:#2f2f2f;fill-opacity:1" />
  <path
     d="m 1024,934.2 c -3.57,-2.991 -6.85,-6.973 -10.09,-10.35 C 999.579,908.889 987.068,893.071 974.928,876.304 928.144,811.692 896.666,736.421 881.025,658.297 869.487,600.662 866.204,541.679 868.311,483.042 l 2.544,-52.518 c 0.585,-7.423 1.024,-15.027 2.196,-22.375 35.163,2.491 70.423,7.669 104.699,15.864 l 46.25,12.843 v 11.811 c -37.045,-12.045 -74.009,-21.962 -112.467,-28.354 -10.585,-1.76 -21.232,-3.689 -31.952,-4.414 l -1.782,28.655 c -3.201,53.283 -1.911,106.767 5.217,159.696 1.332,9.889 2.313,20.35 4.725,30.016 l 2.006,11.265 2.979,14.25 c 0.245,1.221 0.172,3.343 0.757,4.391 0.55,0.986 3.386,2.822 4.35,3.622 11.005,9.126 22.767,17.637 34.929,25.159 18.567,11.482 38.979,21.985 59.238,30.118 l 32,11.299 v 7.42 75.161 7.44 60.289 5.589 28.157 z m 0,-117.249 V 741.79 c -13.12,-3.313 -25.653,-8.328 -38.06,-13.657 -32.416,-13.925 -62.009,-31.081 -89.582,-53.112 l 16.409,58.432 c 2.606,8.409 6.235,16.721 9.484,24.904 1.834,4.619 3.625,9.185 5.83,13.643 1.048,2.119 2.009,4.464 3.665,6.188 2.596,2.702 6.058,4.902 9.156,6.977 6.51,4.36 13.276,8.27 20.253,11.831 19.934,10.173 40.975,15.841 62.845,19.955 z m 0,67.729 v -60.289 c -23.47,-5.164 -46.67,-10.927 -67.956,-22.54 -6.749,-3.682 -12.981,-8.101 -19.463,-12.206 l 13.69,26.605 14.453,24.763 c 3.932,6.348 7.701,13.317 13.712,17.958 5.464,4.219 11.828,7.66 17.809,11.092 l 19.075,10.65 c 2.84,1.431 5.9,2.451 8.68,3.967 z m 0,33.746 v -28.157 l -24,-12.804 c -5.951,-3.359 -12.022,-7.452 -18.376,-9.991 z"
     id="path7"
     style="opacity:0.543986;fill:#2f2f2f;fill-opacity:1" />
  <path
     d="m 1024,632.164 -24.753,-11.5 C 967.141,604.01 937.4,581.831 913.241,554.828 905.718,546.42 899.048,537.319 892.032,528.5 l 0.388,-0.438 16.516,19.078 c 24.569,25.991 53.657,47.269 85.128,64.166 L 1024,625.603 Z"
     id="path8"
     style="opacity:0.543986;fill:#2f2f2f;fill-opacity:1" />
  <defs
     id="defs9" />
  <path
     fill="url(#gradient_1)"
     d="M 1024,579.76 927.274,455.25 927.75,454.83 1024,556.231 Z"
     id="path9"
     style="opacity:0.543986;fill:#2f2f2f;fill-opacity:1" />
  <path
     d="m 610.41,0 h 17.42 11.488 46.367 105.113 7.14 120.413 19.83 46.063 8.639 13.667 17.45 v 6.34527 13.49893 6.5925 123.2433 8.114 36.538 9.244 71.566 4.407 48.801 11.762 l -49.149,-7.762 c -57.083,-13.24 -111.46,-39.08 -156.046,-77.351 -5.511,-4.73 -10.603,-9.958 -15.792,-15.036 -19.229,-18.82 -36.316,-38.969 -51.521,-61.213 -12.724,-18.615 -23.649,-38.367 -35.071,-57.779 L 695.314,86.8419 756.191,50.7174 C 744.58,49.2813 732.974,49.01 721.366,47.1459 681.575,40.7565 643.055,23.4548 610.41,0 Z m 189.586,47.8392 -19.227,1.8616 c -2.789,0.2422 -6.062,-0.0842 -8.748,0.682 -4.036,1.1511 -8.656,4.4362 -12.382,6.4557 l -30.907,17.4398 c -7.86,4.5775 -16.226,9.3608 -23.371,14.9846 14.836,26.1791 28.898,53.0481 46.237,77.6831 2.918,4.146 6.045,9.365 9.854,12.734 5.095,4.507 15.293,7.468 21.754,9.237 10.033,2.746 20.436,3.736 30.794,2.745 33.789,-3.232 60.765,-22.133 88.522,-39.769 13.69,-8.699 27.963,-17.376 40.709,-27.409 -13.678,-5.082 -27.569,-8.178 -41.731,-11.471 l -29.541,-6.773 -112.209,22.274 -0.183,-0.358 100.19,-24.16 C 833.95,98.1438 807.775,94.3083 781.515,91.0684 L 754.951,87.858 c -4.415,-0.5088 -9.067,-0.5604 -13.368,-1.6833 9.422,-0.3292 19.101,0.4939 28.517,1.1016 l 55.831,5.6097 c 10.73,1.5175 21.574,3.701 32.35,4.6936 C 853.551,92.0163 848.08,87.0951 842.789,82.0731 829.201,69.1771 815.877,57.8743 799.996,47.8392 Z m 149.033,78.5318 -23.234,16.022 c -26.353,18.774 -52.769,37.411 -83.795,47.643 -15.425,5.087 -31.223,7.767 -47.454,5.209 -3.992,-0.63 -7.855,-1.31 -11.708,-2.548 -6.46,-2.076 -12.758,-4.749 -18.73,-7.98 l 19.51,24.423 c 3.667,4.242 7.482,9.043 11.934,12.453 5.563,4.261 12.516,6.942 19.131,9.065 13.414,3.389 27.308,5.391 41.176,4.066 15.895,-1.519 33.263,-8.361 46.941,-16.448 l 102.49,-69.86 C 988.103,137.757 967.757,133.338 949.029,126.371 Z M 1024,194.332 v -36.538 l -13.55,-7.037 -57.862,41.581 c -25.859,17.47 -52.795,36.712 -83.572,44.225 -12.391,3.024 -25.577,2.811 -38.147,1.281 -9.495,-1.155 -18.432,-4.448 -27.313,-7.835 22.622,22.713 49.475,41.264 82.749,41.168 31.315,-0.091 59.355,-13.463 84.63,-30.981 7.309,-5.066 14.599,-10.32 21.353,-16.122 z M 926.095,7.46502 886.443,25.3175 c 19.018,17.2408 33.978,36.8016 45.613,59.6825 4.238,8.3363 8.268,17.133 10.458,26.25 0.524,2.184 1.104,4.48 2.178,6.459 l 32.806,11.272 27.052,10.644 c 0.44,-0.616 0.2,-1.065 0.13,-1.828 l -2.89,-20.661 C 998.919,99.2535 994.785,80.2077 987.062,63.7583 979.441,47.5247 967.174,32.411 952.592,21.8808 944.566,16.0852 935.486,10.6959 926.095,7.46502 Z M 1024,275.142 v -71.566 l -27.029,23.351 c -33.625,27.329 -75.114,52.532 -120.221,47.865 -8.905,-0.921 -17.376,-3.433 -25.618,-6.853 4.125,4.171 10.727,7.45 15.795,10.405 21.124,12.313 42.876,23.076 67.923,23.188 22.233,0.099 45.153,-3.88 65.32,-13.579 z M 882.537,26.9779 C 864.692,33.4535 846.545,38.9497 828,43.0471 l -15.5,2.9583 c -3.447,0.5207 -7.669,0.6716 -10.917,1.8872 l 16.279,9.2372 c 8.935,5.4748 17.333,12.4107 25.13,19.3814 l 16.262,15.9926 c 1.502,1.5574 3.892,4.9705 5.542,5.9723 0.602,0.3654 2.266,0.5424 2.988,0.7147 l 7.287,1.6392 64.737,15.513 C 929.171,88.9303 915.561,63.232 896.278,40.8711 892.235,36.1825 887.477,30.6994 882.537,26.9779 Z M 938.181,0 931.507,4.80732 c 6.442,2.83314 13.267,5.29288 19.355,8.82478 19.354,11.2299 35.368,31.0756 43.458,51.8031 6.47,16.5862 10.21,34.2786 12.96,51.8428 l 2.59,19.662 c 0.09,0.818 0.25,5.638 0.58,6.031 0.64,0.762 4.01,2.005 5.05,2.464 l 8.5,4.245 V 26.4367 19.8442 6.34527 0 h -17.45 -13.667 -8.639 z m -147.383,0 -1.369,1.58054 c 1.126,0.00193 2.162,0.00306 3.281,0.16946 l -0.71,0.53194 -0.688,0.70947 0.118,1.31926 c -4.452,3.5606 -9.806,6.56833 -14.755,9.37493 -16.469,9.3403 -34.332,16.4081 -53.254,18.6023 -7.95,0.9218 -16.083,0.6479 -24.068,0.4916 l 2.079,0.7664 c 3.667,1.2288 7.763,1.7986 11.558,2.5276 9.252,1.7771 18.389,2.9584 27.786,3.656 41.681,3.0941 83.33,-3.0449 122.879,-16.4776 C 882.314,16.9147 900.643,8.64342 918.351,0 H 797.938 Z M 627.83,0 c 8.188,5.48857 16.645,10.0943 25.422,14.5544 7.855,3.9911 15.866,7.8988 24.354,10.3634 17.744,5.1519 35.801,5.7073 53.859,2.1814 15.705,-3.0663 31.11,-9.7715 44.984,-17.62858 4.024,-2.27868 8.767,-6.51324 12.98,-7.89008 L 790.798,0 H 685.685 639.318 Z M 1024,279.549 c -11.94,6.612 -24.086,12.924 -37,17.429 -15.514,5.412 -32.692,8.169 -49.117,8.038 -7.162,-0.058 -14.419,-1.052 -21.533,-1.848 28.861,12.646 59.5,19.621 90.65,23.703 l 17,1.479 z"
     id="path10"
     style="opacity:0.543986;fill:#2f2f2f;fill-opacity:1" />
  <path
     d="m 639.318,0 h 46.367 c -7.444,2.48175 -15.421,2.17468 -23.16,2.17402 -4.823,-4.1e-4 -9.971,0.23473 -14.739,-0.49826 z"
     id="path11"
     style="opacity:0.543986;fill:#2f2f2f;fill-opacity:1" />
  <path
     d="m 790.798,0 h 7.14 L 791.43,4.31067 791.312,2.99141 792,2.28194 792.71,1.75 c -1.119,-0.1664 -2.155,-0.16753 -3.281,-0.16946 z"
     id="path12"
     style="opacity:0.543986;fill:#2f2f2f;fill-opacity:1" />
  <path
     d="m 984.244,0 h 8.639 L 1024,19.8442 v 6.5925 C 1011.71,16.0245 998.012,8.18632 984.244,0 Z"
     id="path13"
     style="opacity:0.543986;fill:#2f2f2f;fill-opacity:1" />
  <path
     d="M 1006.55,0 H 1024 V 6.34527 C 1018,4.56856 1012.21,2.68774 1006.55,0 Z"
     id="path14"
     style="opacity:0.543986;fill:#2f2f2f;fill-opacity:1" />
  <path
     d="m 460.676,1024 23.036,-19.72 24.562,19.72 h -15.12 -17.745 z m 14.733,0 h 17.745 l -9.622,-8.55 c -2.912,1.95 -5.709,5.92 -8.123,8.55 z"
     id="path15"
     style="opacity:0.543986;fill:#2f2f2f;fill-opacity:1" />
  <path
     d="m 103.815,0 h 21.022 108.996 12.625 40.584 12.248 c -0.361,2.47401 -1.506,5.09365 -2.205,7.5 l -4.081,14.5 -11.756,41.9477 -2.498,9.0267 c -0.23,0.7688 -1.126,2.5036 -1.117,3.2238 0.008,0.5884 1.296,2.6223 1.615,3.3644 l 10.246,23.3984 c 1.807,3.951 4.511,8.329 5.586,12.501 0.594,2.304 0.459,4.413 -0.892,6.434 -0.973,1.455 -2.33,2.13 -4.035,2.385 -2.08,0.31 -4.211,-0.339 -5.696,-1.834 -2.347,-2.364 -3.381,-6.155 -4.673,-9.166 L 270.501,91.75 c -1.521,-3.4664 -3.191,-8.381 -5.945,-11.0759 -1.31,-1.282 -3.243,-2.092 -4.899,-2.8091 L 214.917,59.5211 C 189.616,48.584 164.828,36.1717 140.856,22.5662 128.269,15.4223 115.74,8.22347 103.815,0 Z M 124.837,0 260.546,67.3197 233.833,0 Z m 121.621,0 c 0.833,1.62015 1.564,3.16414 2.2,4.86664 l 16.325,41.60326 c 2.065,5.3001 4.712,10.3461 6.236,15.8382 L 287.042,0 Z"
     id="path16"
     style="opacity:0.543986;fill:#2f2f2f;fill-opacity:1" />
  <path
     d="M 0,7.75657 V 0 H 4.38928 C 26.1668,8.48739 46.0397,21.1564 64.4992,35.3897 79.6971,47.1081 94.3537,59.8188 107.512,73.8081 132.409,100.276 153.195,132.33 168,165.5 c 3.306,7.407 7.008,15.018 9.439,22.75 l 3.318,9.391 1.761,5.109 2.482,7.5 0.771,2.812 6.006,22.188 c 6.113,27.205 9.438,54.494 11.372,82.274 0.511,7.34 1.598,14.757 1.678,22.107 l -10.849,-4.017 c -6.052,-1.922 -11.925,-2.99 -18.192,-3.79 -12.179,-1.556 -24.306,1.277 -36.286,3.003 L 96.2796,339.99 C 74.9478,341.841 53.6569,342.5 32.25,341.967 L 0,340.019 V 328.997 278.382 273.997 202.69 194.439 159.172 151.651 26.7461 18.8267 Z M 0,278.382 v 50.615 c 3.98161,-0.078 8.03764,0.495 12.0156,0.76 l 19.1392,1.036 c 12.3113,0.589 24.967,0.061 37.2717,-0.597 l 52.8235,-4.683 c 20.991,-2.399 41.834,-7.508 63.06,-4.219 l 0.444,0.073 c -1.115,-2.097 -3.002,-4.082 -4.504,-5.944 L 169.193,302.598 121.146,251.967 84.8474,219.196 Z M 75.7753,55.7634 c 5.1934,8.4716 10.133,16.8996 14.2025,25.9866 6.396,14.2818 10.5282,29.283 13.8322,44.516 5.262,24.262 4.853,50.14 2.621,74.734 -0.611,6.739 -0.798,14.038 -2.386,20.619 l 20.83,18.513 35.481,36.1 c 9.842,10.156 20.136,20.047 28.486,31.501 l 1.158,1.338 0.518,-0.321 c -5.729,-63.957 -21.1,-126.484 -54.816,-181.771 -6.16,-10.1 -12.623,-20.062 -19.972,-29.3424 C 103.651,82.384 89.6838,69.2769 75.7753,55.7634 Z M 0,7.75657 V 18.8267 c 4.82866,4.1439 9.58552,8.8418 13.5991,13.7744 9.3528,11.4944 16.4351,24.0185 21.0588,38.1316 7.8987,24.1096 7.8574,50.2293 6.4986,75.2673 l -1.7984,27.322 60.0437,44.388 2.1012,-30.814 C 103.088,153.006 99.7996,119.639 86.8428,88.0156 80.1281,71.627 70.4443,55.2861 57.7332,42.8308 42.0671,27.48 20.0288,16.1602 0,7.75657 Z M 0,202.69 v 71.307 L 81.0956,216.281 C 74.2823,209.273 66.3342,203.046 58.573,197.129 48.4922,189.444 38.0379,182.006 27.2246,175.392 Z M 0,26.7461 V 151.651 c 12.2175,4.931 22.9655,12.283 34.4341,18.639 l 1.9154,-53.54 C 36.4421,94.8646 30.3207,70.0636 19.2204,51.1846 13.9014,42.1382 7.29311,34.2428 0,26.7461 Z M 0,159.172 v 35.267 l 22.5868,-21.791 c -2.146,-2.231 -5.726,-3.837 -8.412,-5.359 z"
     id="path17"
     style="opacity:0.543986;fill:#2f2f2f;fill-opacity:1" />
  <path
     d="m 0,435.865 37.8684,14.116 c 19.9322,8.109 39.9078,17.598 58.8066,27.909 18.151,9.903 35.539,21.406 52.302,33.494 51.695,37.281 98.187,83.92 130.347,139.244 4.649,7.998 9.458,16.243 13.426,24.602 7.133,15.025 13.991,30.573 18.785,46.52 l 1.927,6 6.388,22.25 c 10.94,46.308 14.214,93.584 9.954,141 -1.542,17.164 -4.8,34.573 -8.467,51.406 L 314.25,969.923 299.609,1024 H 287.654 247.638 233.676 122.923 102.656 0 v -87.362 -20.122 -27.753 -5.227 -59.375 -7.351 -74.8 -7.527 -101.814 -6.962 -50.666 -17.857 -110.17 z m 0,11.149 v 110.17 c 3.88162,5.827 8.57159,11.379 12.9268,16.873 l 26.7476,34.153 17.9993,26.88 20.1094,30.626 c 15.2277,23.596 31.1609,47.241 44.1729,72.157 l 0.668,-51.484 c 0.03,-6.802 0.666,-14.304 -0.289,-21.016 L 119.27,638.714 C 113.61,602.246 102.768,566.427 85.7808,533.598 73.3441,509.121 57.0325,485.065 36.25,466.93 l 0.25,-0.342 c 16.7983,11.18 28.8909,27.313 40.1592,43.757 4.0911,5.969 8.4254,12.064 11.6528,18.542 4.321,6.56 7.634,14.319 10.8634,21.471 8.9396,19.795 16.3086,40.184 20.6646,61.524 2.225,10.901 4.545,21.776 5.91,32.831 2.794,22.64 3.553,45.174 3.22,67.98 L 126.994,744 c -0.099,1.386 -0.759,3.749 -0.566,5.033 0.231,1.533 2.281,4.586 2.997,6.068 l 16.825,31.639 17.987,33.436 7.617,-18.671 17.337,-42.846 c 15.96,-40.561 30.441,-82.546 29.248,-126.748 -0.457,-16.921 -3.096,-33.273 -5.85,-49.916 -7.556,-9.157 -16.688,-16.913 -25.392,-24.933 C 133.933,507.974 68.6608,469.937 0,447.014 Z M 219.322,589.6 c 7.939,28.173 7.134,59.845 1.656,88.4 l -7.337,31.53 -2.079,6.97 c -8.743,32.009 -22.523,63.083 -35.654,93.5 l -8.059,17.489 c -0.061,0.148 -0.2,0.293 -0.171,0.45 0.265,1.407 1.946,3.847 2.626,5.202 l 9.974,19.273 22.068,49.69 c 1.532,3.255 2.668,7.515 4.512,10.485 l 0.258,0.246 6.564,-15.474 c 8.687,-17.211 19.909,-33.328 30.221,-49.611 9.591,-15.143 18.502,-30.956 25.304,-47.565 9.586,-23.405 15.179,-48.865 16.679,-74.094 0.535,-8.993 0.66,-17.82 0.104,-26.817 -0.305,-4.945 -0.61,-10.165 -2.192,-14.896 -3.486,-10.433 -9.265,-19.954 -14.931,-29.316 C 254.551,631.409 238.582,609.503 219.322,589.6 Z M 0,916.516 V 936.638 1024 h 102.656 20.267 110.753 c -1.999,-5.26 -3.415,-12.14 -6.242,-16.89 -1.519,-2.55 -5.585,-4.91 -8.004,-6.71 -6.928,-5.157 -13.989,-9.647 -21.903,-13.172 -11.834,-5.27 -24.334,-8.185 -36.871,-11.181 l -10.588,-1.707 0.909,-0.571 0.181,-0.439 c 0.844,-0.646 0.673,-0.826 0.885,-1.821 -15.408,-3.481 -31.283,-5.129 -46.807,-8.105 C 78.668,958.312 54.5744,948.642 30.6011,936.349 19.5891,930.703 8.74484,925.484 0,916.516 Z m 0,-92.355 v 59.375 c 10.8542,4.533 22.1038,7.74 33.5,10.601 16.18,4.062 32.8829,7.208 49.5,8.81 l 44.651,2.296 64.755,2.226 -35.228,-82.808 C 105.597,832.868 51.5176,832.676 0,824.161 Z m 0,64.602 v 27.753 c 8.74484,8.968 19.5891,14.187 30.6011,19.833 23.9733,12.293 48.0669,21.963 74.6349,27.055 15.524,2.976 31.399,4.624 46.807,8.105 -0.212,0.995 -0.041,1.175 -0.885,1.821 l -0.181,0.439 -0.909,0.571 10.588,1.707 0.257,-0.618 2.087,0.244 1.25,0.447 c 1.881,0.424 2.536,-0.061 4.033,-1.034 20.497,4.079 41.715,14.087 57.521,27.734 L 195.02,915.692 c -0.135,-0.226 -0.278,-0.504 -0.527,-0.587 -0.978,-0.324 -11.463,1.268 -13.236,1.416 l -22.612,1.027 c -16.781,0.603 -33.746,0.667 -50.477,-0.887 C 70.8711,913.197 34.549,903.024 0,888.763 Z m 237.16,106.346 c 0.829,-1.728 0.782,-3.352 1.202,-5.194 l 2.549,-10.166 c 2.169,-8.093 5.209,-15.854 8.613,-23.499 12.137,-27.259 28.237,-52.468 40.141,-79.849 4.392,-10.102 7.694,-20.54 10.872,-31.071 l 7.947,-35.856 3.32,-23.586 c 0.556,-5.288 1.13,-10.83 0.576,-16.138 -0.675,-6.466 -2.739,-13.069 -4.448,-19.334 -4.888,-17.923 -10.894,-34.976 -17.514,-52.308 -0.605,6.101 0.325,12.752 0.511,18.892 0.35,11.607 -0.025,23.2 -1.199,34.75 -3.882,38.189 -19.707,76.737 -40.193,109.025 l -30.361,44.398 c -2.859,4.347 -5.419,8.815 -7.868,13.405 -0.241,0.452 -1.436,2.287 -1.445,2.726 -0.018,0.842 1.22,3.452 1.525,4.446 l 14.348,39.626 z M 0,742.01 v 74.8 c 8.6817,1.845 17.7008,2.588 26.5159,3.51 31.7505,3.324 63.1734,3.756 94.9841,1.19 l 21.901,-2.389 c 3.163,-0.409 6.239,-1.128 9.429,-1.372 l 0.545,-0.038 -28.781,-54.251 C 111.532,763.708 98.4859,761.367 85.5859,759.471 56.7216,755.23 28.0395,750.217 0,742.01 Z M 0,632.669 v 101.814 c 29.1984,8.841 59.1537,14.707 89.3849,18.73 10.3308,1.374 20.7711,3.001 31.1931,3.341 C 108.994,734.46 94.8995,714.024 81.5458,693 L 67.1924,670.539 c -4.767,-7.63 -9.6668,-15.681 -15.3672,-22.635 -5.8173,-0.85 -11.584,-2.575 -17.2627,-4.074 C 22.8565,640.739 11.2755,637.087 0,632.669 Z m 311.804,153.219 -3.32,23.586 -7.947,35.856 c -3.178,10.531 -6.48,20.969 -10.872,31.071 -11.904,27.381 -28.004,52.59 -40.141,79.849 -3.404,7.645 -6.444,15.406 -8.613,23.499 l -2.549,10.166 c -0.42,1.842 -0.373,3.466 -1.202,5.194 1.457,2.182 -0.135,4.342 1.655,6.671 l 8.823,22.22 h 40.016 c 16.766,-53.013 31.178,-108.742 32.676,-164.581 0.51,-19.015 -0.736,-37.877 -2.665,-56.781 l -1.862,-12.534 c -0.083,-0.526 -0.125,-2.439 -0.368,-2.838 -0.209,-0.342 -0.621,-0.506 -0.932,-0.759 -0.953,-0.112 -1.784,-0.332 -2.699,-0.619 z M 0,575.041 v 50.666 l 48.3344,16.891 z"
     id="path18"
     style="opacity:0.543986;fill:#2f2f2f;fill-opacity:1" />
  <path
     d="m 311.804,785.888 c 0.915,0.287 1.746,0.507 2.699,0.619 l -3.512,23.594 c -0.609,-1.135 -0.656,-1.901 -0.665,-3.151 l 0.002,-0.447 c -0.839,0.787 -0.63,1.376 -0.755,2.484 l -1.089,0.487 z"
     id="path19"
     style="opacity:0.543986;fill:#2f2f2f;fill-opacity:1" />
  <path
     d="m 308.484,809.474 1.089,-0.487 c 0.125,-1.108 -0.084,-1.697 0.755,-2.484 l -0.002,0.447 c 0.009,1.25 0.056,2.016 0.665,3.151 -0.37,6.024 -1.976,12.254 -3.29,18.149 -1.46,6.545 -2.826,13.384 -5,19.721 l -1.277,0.302 -0.4,0.224 -0.487,-3.167 z"
     id="path20"
     style="opacity:0.543986;fill:#2f2f2f;fill-opacity:1" />
  <path
     d="m 300.537,845.33 0.487,3.167 0.4,-0.224 1.277,-0.302 c -4.474,15.061 -9.924,29.775 -16.791,43.917 -15.019,30.935 -34.295,59.496 -43.643,92.965 -1.519,5.439 -3.186,11.27 -3.452,16.927 -1.79,-2.329 -0.198,-4.489 -1.655,-6.671 0.829,-1.728 0.782,-3.352 1.202,-5.194 l 2.549,-10.166 c 2.169,-8.093 5.209,-15.854 8.613,-23.499 12.137,-27.259 28.237,-52.468 40.141,-79.849 4.392,-10.102 7.694,-20.54 10.872,-31.071 z"
     id="path21"
     style="opacity:0.543986;fill:#2f2f2f;fill-opacity:1" />
  <path
     d="m 152.043,971.509 16.24,3.577 c -1.497,0.973 -2.152,1.458 -4.033,1.034 l -1.25,-0.447 -2.087,-0.244 -0.257,0.618 -10.588,-1.707 0.909,-0.571 0.181,-0.439 c 0.844,-0.646 0.673,-0.826 0.885,-1.821 z"
     id="path22"
     style="opacity:0.543986;fill:#2f2f2f;fill-opacity:1" />
  <path
     d="m 0,916.516 c 8.74484,8.968 19.5891,14.187 30.6011,19.833 23.9733,12.293 48.0669,21.963 74.6349,27.055 15.524,2.976 31.399,4.624 46.807,8.105 -0.212,0.995 -0.041,1.175 -0.885,1.821 l -0.181,0.439 -0.909,0.571 -47.153,-8.823 C 86.0629,962.021 69.9348,958.339 53.8672,951.97 L 29.7434,941.297 11.8161,932.048 c 20.6467,22.695 44.2062,43.635 68.771,62.075 L 122.923,1024 H 102.656 C 75.2865,1005.71 49.771,984.756 25.5376,962.51 16.6359,954.338 7.44122,946.211 0,936.638 Z"
     id="path23"
     style="opacity:0.543986;fill:#2f2f2f;fill-opacity:1" />
</svg>
