<?xml version="1.0" encoding="UTF-8" standalone="no"?>
<svg
   version="1.1"
   width="104.42389mm"
   height="104.27707mm"
   viewBox="0 0 296.00473 295.58848"
   xml:space="preserve"
   id="svg9"
   xmlns="http://www.w3.org/2000/svg"
   xmlns:svg="http://www.w3.org/2000/svg">
<desc
   id="desc1">Created with Fabric.js 5.3.0</desc>
<defs
   id="defs1" />
<g
   transform="matrix(0.87457704,0,0,0.70974796,143.42471,176.10831)"
   id="-iGu-1AdzguxuA4KGRjJB">
<path
   style="opacity:1;fill:#1d3557;fill-rule:nonzero;stroke:none;stroke-width:1;stroke-linecap:butt;stroke-linejoin:miter;stroke-miterlimit:4;stroke-dasharray:none;stroke-dashoffset:0"
   d="m -6.65039,-133.477 0.059,-29.771 c 8.945,1.499 21.026,1.026 29.875,-0.379 l 0.201,67.643 c 0.013,0.408 -0.085,1.254 0.183,1.57 0,0 18.57759,-17.65568 34.74784,-23.5409 16.17025,-5.88523 29.93316,0 29.93316,0 0.752,7.899 7.746,20.36925 8.622,22.92025 -9.967,-0.639 -33.977,11.91566 -33.977,11.91566 0,0 -17.55874,8.33134 -29.25443,22.99344 -4.9795,6.24247 -8.89622,17.09316 -9.94257,23.29156 -1.03,6.099 -0.435,13.084 -0.437,19.291 l -0.013,177.51398 c -0.002,1.253 -28.289,4.273 -29.919,3.544 0,0 0.293,-88.33699 -0.343,-92.97899 -0.84739,-0.62074 -2.3615,-9.52193 -4.72545,-14.3305 C -18.68098,41.88499 -33.2586,19.51344 -60.21105,6.91277 -96.21365,-9.91898 -95.86281,-12.13759 -96.97062,-12.74701 l 2.46418,-33.68079 c 0.2963,0.57653 16.04275,5.42533 44.75752,18.56757 28.71477,13.14224 42.21148,33.89379 42.83353,34.77301 z"
   stroke-linecap="round"
   id="path1" />
</g>
<g
   transform="matrix(0.12719857,0,0,0.78402612,152.66716,177.60402)"
   id="7hcxwbd5Bc0yH1c5XU1ZA">
<path
   style="opacity:1;fill:#1d3557;fill-rule:nonzero;stroke:#086dc5;stroke-width:0;stroke-linecap:butt;stroke-linejoin:miter;stroke-miterlimit:4;stroke-dasharray:none;stroke-dashoffset:0"
   d="M -150.48544,-150.48544 H 150.48543 V 150.48543 H -150.48544 Z"
   stroke-linecap="round"
   id="path2" />
</g>
<g
   transform="matrix(0.69924746,0,0,0.61424489,246.90586,87.061464)"
   id="5L_YNmeaGFGUYAgNGnBAs">
<path
   style="opacity:1;fill:#a8dadc;fill-rule:nonzero;stroke:none;stroke-width:1;stroke-linecap:butt;stroke-linejoin:miter;stroke-miterlimit:4;stroke-dasharray:none;stroke-dashoffset:0"
   d="m -14.90155,56.61789 c -0.399,-0.51 -9.091,-3.456 -10.787,-4.327 -48.815,-25.05 -38.688,-96.84 13.576,-108.0954 49.945,-10.7557 88.286,44.7504 59.592,88.4044 -7.079,10.77 -19.71,20.502 -32.4,23.193 -8.849,1.475 -20.93,1.948 -29.875,0.449 z m 12.626,-83.703 c -7.473,0.696 -14.686,5.007 -19.472,10.69 l -1.247,1.733 c -4.737,7.001 -6.267,15.614 -2.987,23.503 l 1.438,3.095 c 5.445,10.692 16.336,15.214 27.702,14.578 1.651,-0.243 3.125,-0.592 4.719,-1.11 l 0.409,-0.13 c 21.935,-7.179 26.141,-35.975 5.994,-48.556 l -0.509,-0.322 c -4.641,-2.891 -10.633,-4.296 -16.047,-3.481 z"
   stroke-linecap="round"
   id="path3" />
</g>
<g
   transform="matrix(0.6350172,0,0,0.61424489,152.61985,35.109623)"
   id="9Vw7D_g-bn--7Mtq_3iBK">
<path
   style="opacity:1;fill:#a8dadc;fill-rule:nonzero;stroke:none;stroke-width:1;stroke-linecap:butt;stroke-linejoin:miter;stroke-miterlimit:4;stroke-dasharray:none;stroke-dashoffset:0"
   d="m -14.90155,56.61789 c -0.399,-0.51 -9.091,-3.456 -10.787,-4.327 -48.815,-25.05 -38.688,-96.84 13.576,-108.0954 49.945,-10.7557 88.286,44.7504 59.592,88.4044 -7.079,10.77 -19.71,20.502 -32.4,23.193 -8.849,1.475 -20.93,1.948 -29.875,0.449 z m 12.626,-83.703 c -7.473,0.696 -14.686,5.007 -19.472,10.69 l -1.247,1.733 c -4.737,7.001 -6.267,15.614 -2.987,23.503 l 1.438,3.095 c 5.445,10.692 16.336,15.214 27.702,14.578 1.651,-0.243 3.125,-0.592 4.719,-1.11 l 0.409,-0.13 c 21.935,-7.179 26.141,-35.975 5.994,-48.556 l -0.509,-0.322 c -4.641,-2.891 -10.633,-4.296 -16.047,-3.481 z"
   stroke-linecap="round"
   id="path4" />
</g>
<g
   transform="matrix(0.65652842,0,0,0.61424489,37.634134,147.38251)"
   id="SGxVBEGs9Maa6fox3hR-C">
<path
   style="opacity:1;fill:#a8dadc;fill-rule:nonzero;stroke:none;stroke-width:1;stroke-linecap:butt;stroke-linejoin:miter;stroke-miterlimit:4;stroke-dasharray:none;stroke-dashoffset:0"
   d="m -14.90155,56.61789 c -0.399,-0.51 -9.091,-3.456 -10.787,-4.327 -48.815,-25.05 -38.688,-96.84 13.576,-108.0954 49.945,-10.7557 88.286,44.7504 59.592,88.4044 -7.079,10.77 -19.71,20.502 -32.4,23.193 -8.849,1.475 -20.93,1.948 -29.875,0.449 z m 12.626,-83.703 c -7.473,0.696 -14.686,5.007 -19.472,10.69 l -1.247,1.733 c -4.737,7.001 -6.267,15.614 -2.987,23.503 l 1.438,3.095 c 5.445,10.692 16.336,15.214 27.702,14.578 1.651,-0.243 3.125,-0.592 4.719,-1.11 l 0.409,-0.13 c 21.935,-7.179 26.141,-35.975 5.994,-48.556 l -0.509,-0.322 c -4.641,-2.891 -10.633,-4.296 -16.047,-3.481 z"
   stroke-linecap="round"
   id="path5" />
</g>
<g
   transform="matrix(0.20750751,-0.33050194,1.0979304,0.4539905,112.33729,107.68467)"
   id="3dYJT7jAzpm6lKVsuuHNB">
<path
   style="opacity:1;fill:#1d3557;fill-rule:nonzero;stroke:#b47eab;stroke-width:0;stroke-linecap:butt;stroke-linejoin:miter;stroke-miterlimit:4;stroke-dasharray:none;stroke-dashoffset:0"
   d="m -45.15753,6.20458 c 0,-15.69767 31.86817,-44.95481 31.86817,-44.95481 l 58.4469,8.7808 c 0,0 -25.87812,20.33882 -25.87812,36.03649 0,15.69767 22.29689,31.60666 22.29689,31.60666 l -65.25225,1.0765 c 0,0 -21.4816,-16.84797 -21.4816,-32.54564 z"
   stroke-linecap="round"
   id="path6" />
</g>
<g
   transform="matrix(-0.24727627,-0.34034658,1.0113852,-0.51184877,198.65789,202.19205)"
   id="s0gWcJrQwHwGXq4gfv3SV">
<path
   style="opacity:1;fill:#1d3557;fill-rule:nonzero;stroke:#b47eab;stroke-width:0;stroke-linecap:butt;stroke-linejoin:miter;stroke-miterlimit:4;stroke-dasharray:none;stroke-dashoffset:0"
   d="m -45.15753,7.60918 c 0,-15.69767 26.4564,-47.76401 26.4564,-47.76401 l 63.85867,11.59 c 0,0 -25.87812,20.33882 -25.87812,36.03649 0,15.69767 22.29689,31.60666 22.29689,31.60666 l -65.25225,1.0765 c 0,0 -21.4816,-16.84797 -21.4816,-32.54564 z"
   stroke-linecap="round"
   id="path7" />
</g>
<g
   transform="matrix(0.66452167,0,0,0.61424489,65.762998,70.526374)"
   id="FYdyVmCCyLwz7L3dfzeGi">
<path
   style="opacity:1;fill:#a8dadc;fill-rule:nonzero;stroke:none;stroke-width:1;stroke-linecap:butt;stroke-linejoin:miter;stroke-miterlimit:4;stroke-dasharray:none;stroke-dashoffset:0"
   d="m -14.90155,56.61789 c -0.399,-0.51 -9.091,-3.456 -10.787,-4.327 -48.815,-25.05 -38.688,-96.84 13.576,-108.0954 49.945,-10.7557 88.286,44.7504 59.592,88.4044 -7.079,10.77 -19.71,20.502 -32.4,23.193 -8.849,1.475 -20.93,1.948 -29.875,0.449 z m 12.626,-83.703 c -7.473,0.696 -14.686,5.007 -19.472,10.69 l -1.247,1.733 c -4.737,7.001 -6.267,15.614 -2.987,23.503 l 1.438,3.095 c 5.445,10.692 16.336,15.214 27.702,14.578 1.651,-0.243 3.125,-0.592 4.719,-1.11 l 0.409,-0.13 c 21.935,-7.179 26.141,-35.975 5.994,-48.556 l -0.509,-0.322 c -4.641,-2.891 -10.633,-4.296 -16.047,-3.481 z"
   stroke-linecap="round"
   id="path8" />
</g>
<g
   transform="matrix(0.66739232,0,0,0.61424489,257.74782,175.6183)"
   id="5QOgGY7StZox_JvzCe7hQ">
<path
   style="opacity:1;fill:#a8dadc;fill-rule:nonzero;stroke:none;stroke-width:1;stroke-linecap:butt;stroke-linejoin:miter;stroke-miterlimit:4;stroke-dasharray:none;stroke-dashoffset:0"
   d="m -14.90155,56.61789 c -0.399,-0.51 -9.091,-3.456 -10.787,-4.327 -48.815,-25.05 -38.688,-96.84 13.576,-108.0954 49.945,-10.7557 88.286,44.7504 59.592,88.4044 -7.079,10.77 -19.71,20.502 -32.4,23.193 -8.849,1.475 -20.93,1.948 -29.875,0.449 z m 12.626,-83.703 c -7.473,0.696 -14.686,5.007 -19.472,10.69 l -1.247,1.733 c -4.737,7.001 -6.267,15.614 -2.987,23.503 l 1.438,3.095 c 5.445,10.692 16.336,15.214 27.702,14.578 1.651,-0.243 3.125,-0.592 4.719,-1.11 l 0.409,-0.13 c 21.935,-7.179 26.141,-35.975 5.994,-48.556 l -0.509,-0.322 c -4.641,-2.891 -10.633,-4.296 -16.047,-3.481 z"
   stroke-linecap="round"
   id="path9" />
</g>
</svg>
